<?xml version="1.0" encoding="utf-8"?>
<!-- Generator: Adobe Illustrator 20.1.0, SVG Export Plug-In . SVG Version: 6.00 Build 0)  -->
<svg version="1.1" id="Layer_1" xmlns="http://www.w3.org/2000/svg" xmlns:xlink="http://www.w3.org/1999/xlink" x="0px" y="0px"
	 viewBox="0 0 276 57" style="enable-background:new 0 0 276 57;" xml:space="preserve">
<style type="text/css">
	.st0{fill:#1A202E;}
	.st1{fill:#1A1F2E;}
	.st2{fill:url(#SVGID_1_);}
	.st3{fill:url(#SVGID_2_);}
	.st4{fill:url(#SVGID_3_);}
	.st5{fill:url(#SVGID_4_);}
	.st6{fill:url(#SVGID_5_);}
	.st7{fill:url(#SVGID_6_);}
</style>
<g id="Best_Case">
	<g>
		<path class="st0" d="M69.6,11.7h6.5c2.6,0,4.7,0.3,6.1,0.9c1.4,0.6,2.5,1.6,3.4,2.9c0.8,1.3,1.2,2.7,1.2,4.3c0,1.5-0.4,2.8-1.1,4
			C85,25.1,84,26,82.6,26.8c1.7,0.6,3.1,1.3,4,2.1s1.7,1.7,2.2,2.9s0.8,2.3,0.8,3.6c0,2.7-1,4.9-2.9,6.8c-1.9,1.8-4.6,2.8-7.8,2.8
			h-9.1V11.7z M72.9,15v10.6h1.9c2.3,0,4-0.2,5.1-0.6c1.1-0.4,1.9-1.1,2.6-2s1-2,1-3.1c0-1.5-0.5-2.7-1.6-3.6
			C80.7,15.4,79,15,76.7,15H72.9z M72.9,28.9v12.7H77c2.4,0,4.2-0.2,5.3-0.7c1.1-0.5,2-1.2,2.7-2.2c0.7-1,1-2.1,1-3.3
			c0-1.5-0.5-2.8-1.4-3.9s-2.3-1.9-4-2.3c-1.1-0.3-3.1-0.4-5.9-0.4H72.9z"/>
		<path class="st0" d="M115.3,36.8l2.7,1.4c-0.9,1.7-1.9,3.1-3,4.2c-1.1,1.1-2.4,1.9-3.9,2.4s-3,0.8-4.9,0.8c-4,0-7.1-1.3-9.4-3.9
			c-2.3-2.6-3.4-5.6-3.4-8.9c0-3.1,1-5.9,2.9-8.3c2.4-3.1,5.7-4.6,9.7-4.6c4.2,0,7.5,1.6,10,4.8c1.8,2.2,2.7,5,2.7,8.4H96.7
			c0.1,2.9,1,5.2,2.7,7c1.8,1.8,3.9,2.7,6.5,2.7c1.3,0,2.5-0.2,3.6-0.7c1.2-0.4,2.2-1,3-1.7S114.3,38.4,115.3,36.8z M115.3,30.1
			c-0.4-1.7-1-3-1.8-4c-0.8-1-1.9-1.8-3.2-2.4c-1.3-0.6-2.7-0.9-4.2-0.9c-2.4,0-4.5,0.8-6.2,2.3c-1.3,1.1-2.2,2.8-2.9,5.1H115.3z"/>
		<path class="st0" d="M136.1,23l-2,2.1c-1.7-1.6-3.3-2.5-5-2.5c-1,0-1.9,0.3-2.6,1c-0.7,0.7-1.1,1.5-1.1,2.4c0,0.8,0.3,1.6,0.9,2.3
			c0.6,0.7,1.9,1.6,3.8,2.6c2.4,1.2,3.9,2.4,4.8,3.5c0.8,1.1,1.2,2.4,1.2,3.9c0,2-0.7,3.7-2.1,5.1c-1.4,1.4-3.2,2.1-5.3,2.1
			c-1.4,0-2.8-0.3-4.1-0.9s-2.4-1.5-3.2-2.5l2-2.3c1.6,1.8,3.3,2.7,5.1,2.7c1.3,0,2.3-0.4,3.2-1.2c0.9-0.8,1.3-1.8,1.3-2.9
			c0-0.9-0.3-1.7-0.9-2.4c-0.6-0.7-1.9-1.6-4-2.6c-2.2-1.1-3.7-2.3-4.5-3.4s-1.2-2.4-1.2-3.8c0-1.9,0.6-3.4,1.9-4.6
			c1.3-1.2,2.9-1.9,4.8-1.9C131.5,19.7,133.8,20.8,136.1,23z"/>
		<path class="st0" d="M143.5,11.2h3.2v9.1h5v2.7h-5v21.8h-3.2V23.1h-4.3v-2.7h4.3V11.2z"/>
		<path class="st0" d="M198.8,17.9l-2.6,2c-1.4-1.9-3.2-3.3-5.2-4.3s-4.2-1.5-6.7-1.5c-2.6,0-5.1,0.6-7.4,1.9c-2.3,1.3-4,3-5.2,5.1
			c-1.2,2.1-1.9,4.6-1.9,7.2c0,4,1.4,7.4,4.2,10.1c2.8,2.7,6.3,4.1,10.5,4.1c4.6,0,8.5-1.8,11.7-5.5l2.6,2c-1.7,2.1-3.7,3.7-6.2,4.9
			c-2.5,1.2-5.2,1.7-8.3,1.7c-5.8,0-10.4-1.9-13.7-5.8c-2.8-3.3-4.2-7.2-4.2-11.8c0-4.9,1.7-8.9,5.1-12.3c3.4-3.3,7.7-5,12.8-5
			c3.1,0,5.9,0.6,8.4,1.8S197.2,15.7,198.8,17.9z"/>
		<path class="st0" d="M228.5,20.3v24.6h-3.1v-4.2c-1.3,1.6-2.8,2.8-4.5,3.6c-1.6,0.8-3.4,1.2-5.4,1.2c-3.5,0-6.4-1.3-8.9-3.8
			c-2.5-2.5-3.7-5.6-3.7-9.2c0-3.5,1.2-6.6,3.7-9.1c2.5-2.5,5.5-3.8,9-3.8c2,0,3.8,0.4,5.5,1.3c1.6,0.9,3.1,2.1,4.3,3.9v-4.5H228.5z
			 M215.8,22.8c-1.8,0-3.4,0.4-4.9,1.3c-1.5,0.9-2.7,2.1-3.5,3.6s-1.3,3.2-1.3,5c0,1.7,0.4,3.4,1.3,5c0.9,1.6,2.1,2.8,3.6,3.7
			c1.5,0.9,3.1,1.3,4.8,1.3c1.7,0,3.4-0.4,4.9-1.3s2.7-2.1,3.6-3.5c0.8-1.5,1.3-3.2,1.3-5c0-2.8-0.9-5.2-2.8-7.1
			C220.9,23.7,218.6,22.8,215.8,22.8z"/>
		<path class="st0" d="M247,23l-2,2.1c-1.7-1.6-3.3-2.5-5-2.5c-1,0-1.9,0.3-2.6,1c-0.7,0.7-1.1,1.5-1.1,2.4c0,0.8,0.3,1.6,0.9,2.3
			c0.6,0.7,1.9,1.6,3.8,2.6c2.4,1.2,3.9,2.4,4.8,3.5c0.8,1.1,1.2,2.4,1.2,3.9c0,2-0.7,3.7-2.1,5.1c-1.4,1.4-3.2,2.1-5.3,2.1
			c-1.4,0-2.8-0.3-4.1-0.9s-2.4-1.5-3.2-2.5l2-2.3c1.6,1.8,3.3,2.7,5.1,2.7c1.3,0,2.3-0.4,3.2-1.2c0.9-0.8,1.3-1.8,1.3-2.9
			c0-0.9-0.3-1.7-0.9-2.4c-0.6-0.7-1.9-1.6-4-2.6c-2.2-1.1-3.7-2.3-4.5-3.4s-1.2-2.4-1.2-3.8c0-1.9,0.6-3.4,1.9-4.6
			c1.3-1.2,2.9-1.9,4.8-1.9C242.4,19.7,244.7,20.8,247,23z"/>
		<path class="st0" d="M272.3,36.8l2.7,1.4c-0.9,1.7-1.9,3.1-3,4.2c-1.1,1.1-2.4,1.9-3.9,2.4s-3,0.8-4.9,0.8c-4,0-7.1-1.3-9.4-3.9
			c-2.3-2.6-3.4-5.6-3.4-8.9c0-3.1,1-5.9,2.9-8.3c2.4-3.1,5.7-4.6,9.7-4.6c4.2,0,7.5,1.6,10,4.8c1.8,2.2,2.7,5,2.7,8.4h-22.1
			c0.1,2.9,1,5.2,2.7,7c1.8,1.8,3.9,2.7,6.5,2.7c1.3,0,2.5-0.2,3.6-0.7c1.2-0.4,2.2-1,3-1.7S271.4,38.4,272.3,36.8z M272.3,30.1
			c-0.4-1.7-1-3-1.8-4c-0.8-1-1.9-1.8-3.2-2.4c-1.3-0.6-2.7-0.9-4.2-0.9c-2.4,0-4.5,0.8-6.2,2.3c-1.3,1.1-2.2,2.8-2.9,5.1H272.3z"/>
	</g>
	<path class="st1" d="M15.9,41.6c-0.1-0.1-0.2-0.1-0.2-0.2c0,0-0.1,0-0.1,0c-0.1,0.2-0.1,0.4-0.2,0.6c-0.1,0.2-0.2,0.5-0.3,0.7
		c0.1,0.3,0,0.7-0.3,0.9c0,0.7-0.2,1.4-0.4,2.2c0,0.2,0,0.3,0,0.5c0.1,0.2,0.1,0.4,0.1,0.6c0.2,1.1,0.5,2.1,0.6,3.2
		c0.3,0.1,0.5,0.4,0.5,0.7c0.6,0.2,0.7,0.9,0.5,1.4c0.4,0.5,0.8,0.9,1.3,1.3c1.8,1.2,4.2,2.7,5.8,2.4C25.5,55.3,26.6,50.6,15.9,41.6
		"/>
	<linearGradient id="SVGID_1_" gradientUnits="userSpaceOnUse" x1="0.2066" y1="36.0821" x2="20.3574" y2="36.0821">
		<stop  offset="0" style="stop-color:#FDB924"/>
		<stop  offset="0.5" style="stop-color:#FDB924"/>
		<stop  offset="1" style="stop-color:#FDB924"/>
	</linearGradient>
	<path class="st2" d="M14.4,53c2.3,1.3,4.7,2.2,7.1,2.8h0c0.3,0,0.6,0.1,0.9,0.1c-3.6-0.3-11-6.6-5.4-15.9
		c6.4-10.8,6.9-17.6,1.6-21.5c-2.2-1.6-4.8-2.4-7.3-2.4C5.7,16.2,0.4,20,0,28C-0.4,38,5.1,47.8,14.4,53z"/>
	<path class="st1" d="M16.9,6.4c-0.3,0-0.5-0.1-0.8-0.1c-1.6-0.2-3.2,0.2-4.8,0.3c-1.8,1-3.9,2.2-4.4,3.6c-0.7,2.5,2.8,5.8,15.9,1
		c0,0,0.1,0,0.1,0C21.9,8.8,19.2,6.9,16.9,6.4"/>
	<linearGradient id="SVGID_2_" gradientUnits="userSpaceOnUse" x1="7.1649" y1="12.892" x2="44.9774" y2="12.892">
		<stop  offset="0" style="stop-color:#FDB924"/>
		<stop  offset="0.5" style="stop-color:#FDB924"/>
		<stop  offset="1" style="stop-color:#FDB924"/>
	</linearGradient>
	<path class="st3" d="M23.5,12.8c6,11,11.7,14.8,17.6,12.2c7.7-3.5,11-14.7,1.2-21c-4.2-2.7-9-4-14-4c-5,0-10,1.4-14.6,4.1
		c-2.3,1.4-4.3,3-6,4.8l0,0C7.5,9.2,7.3,9.4,7.2,9.6C9.3,6.6,18.3,3.3,23.5,12.8z"/>
	<path class="st1" d="M46.4,32.8c0.5-0.1,1-0.2,1.4-0.3c0.5-0.2,1-0.4,1.4-0.6c0.6-0.4,1.3-0.8,2-1.1c0.2-0.2,0.4-0.3,0.6-0.5
		c1.2-1.3,2.5-2.7,3.2-4.3c0.1-2.3,0.3-5.7-0.8-7.1c-1.8-1.8-6.4-0.5-8.8,13.4c0,0.2-0.1,0.4-0.1,0.5C45.7,32.9,46,32.9,46.4,32.8"
		/>
	<linearGradient id="SVGID_3_" gradientUnits="userSpaceOnUse" x1="25.1207" y1="37.1209" x2="55.8946" y2="37.1209">
		<stop  offset="0" style="stop-color:#FDB924"/>
		<stop  offset="0.5" style="stop-color:#FDB924"/>
		<stop  offset="1" style="stop-color:#FDB924"/>
	</linearGradient>
	<path class="st4" d="M54.5,19.5c1.5,3.4-0.1,12.9-10.9,12.7C31.2,32,25.1,35,24.4,41.5c-0.9,8.5,7.1,17,17.4,11.5
		C50.5,48.4,56.1,38.7,56,28c0-2.7-0.4-5.2-1.1-7.7C54.7,20,54.6,19.8,54.5,19.5z"/>
	<path class="st1" d="M15.9,41.6c-0.1-0.1-0.2-0.1-0.2-0.2c0,0-0.1,0-0.1,0c-0.1,0.2-0.1,0.4-0.2,0.6c-0.1,0.2-0.2,0.5-0.3,0.7
		c0.1,0.3,0,0.7-0.3,0.9c0,0.7-0.2,1.4-0.4,2.2c0,0.2,0,0.3,0,0.5c0.1,0.2,0.1,0.4,0.1,0.6c0.2,1.1,0.5,2.1,0.6,3.2
		c0.3,0.1,0.5,0.4,0.5,0.7c0.6,0.2,0.7,0.9,0.5,1.4c0.4,0.5,0.8,0.9,1.3,1.3c1.8,1.2,4.2,2.7,5.8,2.4C25.5,55.3,26.6,50.6,15.9,41.6
		"/>
	<linearGradient id="SVGID_4_" gradientUnits="userSpaceOnUse" x1="6.9892" y1="49.1577" x2="20.0309" y2="22.4184">
		<stop  offset="0" style="stop-color:#D3881F"/>
		<stop  offset="0.5" style="stop-color:#FABD28"/>
		<stop  offset="1" style="stop-color:#FED855"/>
	</linearGradient>
	<path class="st5" d="M14.4,53c2.3,1.3,4.7,2.2,7.1,2.8h0c0.3,0,0.6,0.1,0.9,0.1c-3.6-0.3-11-6.6-5.4-15.9
		c6.4-10.8,6.9-17.6,1.6-21.5c-2.2-1.6-4.8-2.4-7.3-2.4C5.7,16.2,0.4,20,0,28C-0.4,38,5.1,47.8,14.4,53z"/>
	<path class="st1" d="M16.9,6.4c-0.3,0-0.5-0.1-0.8-0.1c-1.6-0.2-3.2,0.2-4.8,0.3c-1.8,1-3.9,2.2-4.4,3.6c-0.7,2.5,2.8,5.8,15.9,1
		c0,0,0.1,0,0.1,0C21.9,8.8,19.2,6.9,16.9,6.4"/>
	<linearGradient id="SVGID_5_" gradientUnits="userSpaceOnUse" x1="15.7835" y1="-0.7621" x2="41.9186" y2="21.1679">
		<stop  offset="0" style="stop-color:#D3881F"/>
		<stop  offset="0.5" style="stop-color:#FABD28"/>
		<stop  offset="1" style="stop-color:#FED855"/>
	</linearGradient>
	<path class="st6" d="M23.5,12.8c6,11,11.7,14.8,17.6,12.2c7.7-3.5,11-14.7,1.2-21c-4.2-2.7-9-4-14-4c-5,0-10,1.4-14.6,4.1
		c-2.3,1.4-4.3,3-6,4.8l0,0C7.5,9.2,7.3,9.4,7.2,9.6C9.3,6.6,18.3,3.3,23.5,12.8z"/>
	<path class="st1" d="M46.4,32.8c0.5-0.1,1-0.2,1.4-0.3c0.5-0.2,1-0.4,1.4-0.6c0.6-0.4,1.3-0.8,2-1.1c0.2-0.2,0.4-0.3,0.6-0.5
		c1.2-1.3,2.5-2.7,3.2-4.3c0.1-2.3,0.3-5.7-0.8-7.1c-1.8-1.8-6.4-0.5-8.8,13.4c0,0.2-0.1,0.4-0.1,0.5C45.7,32.9,46,32.9,46.4,32.8"
		/>
	<linearGradient id="SVGID_6_" gradientUnits="userSpaceOnUse" x1="55.1884" y1="37.1209" x2="24.4145" y2="37.1209">
		<stop  offset="0" style="stop-color:#D3881F"/>
		<stop  offset="0.5" style="stop-color:#FABD28"/>
		<stop  offset="1" style="stop-color:#FED855"/>
	</linearGradient>
	<path class="st7" d="M54.5,19.5c1.5,3.4-0.1,12.9-10.9,12.7C31.2,32,25.1,35,24.4,41.5c-0.9,8.5,7.1,17,17.4,11.5
		C50.5,48.4,56.1,38.7,56,28c0-2.7-0.4-5.2-1.1-7.7C54.7,20,54.6,19.8,54.5,19.5z"/>
</g>
</svg>
