<?xml version="1.0" encoding="utf-8"?>
<!-- Generator: Adobe Illustrator 20.1.0, SVG Export Plug-In . SVG Version: 6.00 Build 0)  -->
<svg version="1.1" id="Layer_1" xmlns="http://www.w3.org/2000/svg" xmlns:xlink="http://www.w3.org/1999/xlink" x="0px" y="0px"
	 viewBox="0 0 276 57" style="enable-background:new 0 0 276 57;" xml:space="preserve">
<style type="text/css">
	.st0{opacity:0.6;fill:#BEBEBE;enable-background:new    ;}
	.st1{opacity:0.6;fill:#1F1F1F;enable-background:new    ;}
	.st2{fill:#AAAAAA;}
</style>
<path class="st0" d="M21.5,55.9c0.3,0.1,0.5,0.1,0.9,0.1c-3.7-0.3-11-6.5-5.4-15.9c6.3-10.8,6.9-17.6,1.6-21.5
	c-2.1-1.6-4.7-2.4-7.4-2.4C5.7,16.3,0.4,20.1,0,28.1c-0.4,9.9,5.1,19.8,14.4,25C16.6,54.4,19,55.3,21.5,55.9L21.5,55.9z"/>
<path class="st1" d="M16.1,41.7c-3.4,7.4,1.4,12.6,4.9,14c0.7,0.3,1.4,0.4,2,0.3C25.5,55.2,26.6,50.6,16.1,41.7z"/>
<path class="st0" d="M41.1,25c7.8-3.5,11-14.6,1.2-21c-4.2-2.7-9-4-14-4c-5.2,0-10.2,1.4-14.6,4.1c-2.2,1.3-4.2,2.9-6,4.8l0,0
	C7.5,9.1,7.4,9.4,7.2,9.7c2.1-3,11.1-6.3,16.3,3.2C29.5,23.8,35.2,27.7,41.1,25z"/>
<path class="st1" d="M7.2,9.6c0.1-0.1,0.2-0.3,0.3-0.4c-0.3,0.3-0.5,0.6-0.6,1c-0.7,2.5,2.8,5.8,15.6,1.1C17.3,3.7,9.1,6.8,7.2,9.6z
	"/>
<path class="st0" d="M43.7,32.2C31.2,32,25.1,35,24.4,41.5c-0.9,8.5,7.1,17,17.4,11.5c8.8-4.6,14.4-14.4,14.2-25.1
	c0-2.6-0.4-5.2-1.2-7.7c-0.1-0.3-0.2-0.5-0.3-0.8C56.1,22.9,54.4,32.4,43.7,32.2z"/>
<path class="st1" d="M54.5,19.5c0.1,0.1,0.1,0.3,0.2,0.5c-0.1-0.4-0.3-0.7-0.5-1c-1.8-1.8-6.3-0.5-8.7,13.1
	C54.6,31.3,56,22.7,54.5,19.5z"/>
<g id="Best_Case_1_">
	<path class="st2" d="M69.6,11.6h6.5c2-0.1,4.2,0.2,6.1,1c1.4,0.6,2.5,1.6,3.3,2.9c0.8,1.3,1.2,2.8,1.2,4.3c0,1.4-0.3,2.8-1.1,4
		c-0.7,1.2-1.8,2.2-3.1,2.9c1.4,0.4,2.8,1.1,4,2c1,0.8,1.7,1.8,2.2,2.9c0.5,1.2,0.8,2.4,0.7,3.7c0.1,2.6-1,5-2.9,6.7
		c-2,1.8-4.6,2.8-7.8,2.8h-9.1V11.6z M72.9,14.9v10.6h1.9c1.7,0.1,3.5-0.1,5.1-0.6c1-0.4,2-1.1,2.6-2c0.6-0.9,1-2,1-3.1
		c0.1-1.4-0.5-2.7-1.6-3.6c-1.1-0.9-2.7-1.3-5.1-1.3H72.9z M72.9,28.8v12.7H77c1.8,0.1,3.6-0.1,5.3-0.7c1.1-0.5,2-1.2,2.7-2.2
		c1.6-2.2,1.4-5.2-0.3-7.1c-1.1-1.2-2.5-1.9-3.9-2.2c-2-0.3-3.9-0.5-5.9-0.4L72.9,28.8z"/>
	<path class="st2" d="M115.3,36.6l2.7,1.4c-0.7,1.6-1.8,2.9-3,4.2c-1.1,1-2.5,1.8-3.9,2.4c-1.6,0.5-3.2,0.9-4.8,0.8
		c-4,0-7.1-1.3-9.4-3.9c-2.2-2.5-3.4-5.6-3.4-8.9c0-3,1-6,2.9-8.3c2.3-3.1,5.9-4.8,9.7-4.6c3.9-0.1,7.6,1.6,10,4.8
		c1.8,2.4,2.8,5.4,2.7,8.4H96.7c-0.1,2.6,1,5.1,2.7,7c1.7,1.8,4.1,2.8,6.5,2.7c1.2,0,2.5-0.3,3.7-0.7c1.1-0.4,2.1-1,3-1.8
		c1.1-1,2-2.2,2.7-3.5 M115.3,30c-0.3-1.4-1-2.9-1.8-4c-0.9-1-2-1.9-3.2-2.5c-1.3-0.6-2.7-1-4.2-0.9c-2.3-0.1-4.5,0.8-6.2,2.3
		c-1.4,1.4-2.4,3.1-2.9,5H115.3z"/>
	<path class="st2" d="M136,22.9l-2,2.1c-1.7-1.6-3.3-2.5-5-2.5c-1,0-1.9,0.3-2.7,1c-0.7,0.6-1.1,1.4-1.1,2.4c0,0.8,0.3,1.6,0.9,2.3
		c0.6,0.7,1.8,1.6,3.8,2.6c2.4,1.2,3.9,2.4,4.8,3.5c0.8,1.1,1.2,2.5,1.2,3.9c0.1,1.9-0.7,3.8-2.1,5.1c-1.4,1.4-3.3,2.2-5.3,2.1
		c-1.4,0-2.8-0.3-4.1-1c-1.2-0.6-2.3-1.5-3.1-2.5l2-2.2c1.6,1.8,3.3,2.7,5.1,2.7c1.2,0,2.4-0.4,3.3-1.2c0.9-0.7,1.4-1.8,1.4-2.9
		c0-0.9-0.3-1.8-0.9-2.5c-0.6-0.7-2-1.6-4-2.6c-2.2-1.2-3.7-2.2-4.5-3.4c-0.8-1.1-1.2-2.5-1.2-3.8c-0.1-1.8,0.6-3.5,1.9-4.6
		c1.3-1.2,3.1-1.9,4.8-1.8C131.5,19.6,133.7,20.6,136,22.9"/>
	<polygon class="st2" points="143.4,11.1 146.6,11.1 146.6,20.2 151.6,20.2 151.6,23 146.6,23 146.6,44.7 143.4,44.7 143.4,23 
		139.2,23 139.2,20.2 143.4,20.2 	"/>
	<path class="st2" d="M198.7,17.7l-2.6,2c-1.4-1.8-3.1-3.3-5.2-4.3c-2.1-1-4.4-1.5-6.7-1.4c-2.6,0-5.1,0.6-7.4,1.9
		c-2.2,1.2-4,3-5.2,5.1c-1.2,2.2-1.9,4.7-1.8,7.2c-0.1,3.8,1.4,7.5,4.2,10.1c2.8,2.7,6.6,4.2,10.5,4.1c4.5,0.1,8.8-2,11.6-5.4l2.6,2
		c-1.6,2.1-3.7,3.7-6.2,4.9c-2.6,1.2-5.4,1.8-8.3,1.7c-5.8,0-10.4-1.9-13.7-5.8c-2.8-3.3-4.4-7.5-4.2-11.8
		c-0.1-4.6,1.8-9.1,5.1-12.3c3.4-3.3,7.7-5,12.8-5c2.9-0.1,5.8,0.6,8.4,1.8C195,13.8,197.1,15.5,198.7,17.7"/>
	<path class="st2" d="M228.3,20.2v24.5h-3.1v-4.2c-1.2,1.5-2.7,2.7-4.4,3.6c-4.8,2.3-10.5,1.3-14.3-2.6c-2.5-2.5-3.7-5.8-3.7-9.2
		c-0.1-3.4,1.3-6.7,3.7-9.1c2.3-2.5,5.6-3.8,8.9-3.7c1.9,0,3.7,0.4,5.4,1.3c1.7,1,3.2,2.2,4.3,3.9v-4.5H228.3z M215.7,22.6
		c-3.5,0-6.7,1.8-8.4,5c-1.8,3.1-1.8,6.9,0,9.9c0.8,1.5,2,2.8,3.5,3.7c1.4,0.9,3.1,1.3,4.8,1.3s3.4-0.5,4.9-1.3
		c1.5-0.8,2.7-2,3.6-3.5c0.8-1.6,1.3-3.3,1.2-5c0.1-2.7-1-5.2-2.8-7.1C220.8,23.6,218.3,22.5,215.7,22.6"/>
	<path class="st2" d="M246.9,22.9l-2,2.1c-1.7-1.6-3.3-2.5-5-2.5c-1,0-1.9,0.3-2.7,1c-0.7,0.6-1.1,1.4-1.1,2.4c0,0.8,0.3,1.6,1,2.3
		c0.6,0.7,1.8,1.6,3.8,2.6c2.4,1.2,3.9,2.4,4.8,3.5c0.8,1.1,1.2,2.5,1.2,3.9c0.1,1.9-0.7,3.8-2.1,5.1c-1.4,1.4-3.3,2.2-5.3,2.1
		c-1.4,0-2.8-0.3-4.1-1c-1.2-0.6-2.3-1.4-3.2-2.5l2-2.2c1.6,1.8,3.3,2.7,5.1,2.7c1.2,0,2.4-0.4,3.3-1.2c0.9-0.7,1.4-1.8,1.4-2.9
		c0-0.9-0.3-1.8-0.9-2.5c-0.6-0.7-1.9-1.6-3.9-2.6c-2.2-1.2-3.7-2.2-4.5-3.4c-0.8-1.1-1.2-2.5-1.2-3.8c-0.1-1.8,0.6-3.5,1.9-4.6
		c1.3-1.2,3.1-1.9,4.8-1.8C242.3,19.6,244.6,20.6,246.9,22.9"/>
	<path class="st2" d="M272.2,36.6l2.7,1.4c-0.7,1.6-1.8,2.9-3,4.2c-1.1,1-2.5,1.8-3.9,2.4c-1.6,0.5-3.2,0.8-4.8,0.8
		c-4,0-7.1-1.3-9.4-3.9c-2.2-2.5-3.4-5.6-3.4-8.9c0-3.1,1-6,2.9-8.4c2.3-3.1,5.9-4.8,9.7-4.6c3.9-0.1,7.6,1.6,10,4.8
		c1.8,2.4,2.8,5.4,2.7,8.4h-22.1c-0.1,2.6,1,5.1,2.7,7c1.7,1.8,4.1,2.8,6.5,2.7c1.2,0,2.5-0.3,3.7-0.7c1.1-0.4,2.1-1,3-1.7
		C270.6,39,271.5,37.9,272.2,36.6 M272.2,30c-0.3-1.4-1-2.8-1.8-4c-0.9-1-2-1.9-3.2-2.5c-1.3-0.6-2.7-1-4.2-1
		c-2.3-0.1-4.5,0.8-6.2,2.3c-1.4,1.4-2.4,3.1-2.9,5L272.2,30z"/>
</g>
</svg>
